<svg class="svg-icon" style="width: 1em;height: 1em;vertical-align: middle;fill: currentColor;overflow: hidden;" viewBox="0 0 1024 1024" version="1.1" xmlns="http://www.w3.org/2000/svg"><path d="M899.982222 233.585778c0-60.512711-49.055289-109.568-109.568-109.568H233.585778c-60.512711 0-109.568 49.055289-109.568 109.568v556.828444c0 60.513849 49.055289 109.568 109.568 109.568h556.828444c60.512711 0 109.568-49.054151 109.568-109.568V233.585778zM766.862222 462.450916c-50.062222 0.559787-96.711111-14.576071-137.671111-42.607503v196.778667c0 87.457564-59.865316 162.583893-144.519395 182.204871-115.491271 26.348658-213.25824-57.183573-225.589476-156.973511-12.894436-99.792213 50.74944-187.250916 148.297956-206.873031 19.061191-3.923058 47.730916-3.923058 62.522026-0.559787v105.396907c-4.551111-1.118436-8.813227-2.241422-13.297209-2.801209-38.12352-6.728818-75.046684 12.332373-90.18368 47.091484-15.135858 34.761387-5.005084 75.124053 25.828694 98.67264 25.787733 20.181902 54.400569 22.983111 83.552711 9.527752 29.15328-12.89216 44.82048-36.438471 48.182613-68.394098 0.560924-4.482844 0.530204-9.530027 0.530205-14.576071v-378.424889c0-10.651876 0.083058-10.184249 10.734933-10.184249h83.533369c6.167893 0 8.411591 0.885191 8.972515 8.177209 4.481707 65.031964 53.856711 120.416711 117.20704 128.827164 6.72768 1.120711 13.93664 1.564444 21.901085 2.124231l-0.002276 102.593423z"  /></svg>